<?xml version="1.0" encoding="UTF-8" standalone="no"?>
<!-- Created with Inkscape (http://www.inkscape.org/) -->

<svg
   width="210mm"
   height="297mm"
   viewBox="0 0 210 297"
   version="1.1"
   id="svg1"
   inkscape:version="1.3 (0e150ed6c4, 2023-07-21)"
   sodipodi:docname="logospletna.svg"
   xml:space="preserve"
   xmlns:inkscape="http://www.inkscape.org/namespaces/inkscape"
   xmlns:sodipodi="http://sodipodi.sourceforge.net/DTD/sodipodi-0.dtd"
   xmlns="http://www.w3.org/2000/svg"
   xmlns:svg="http://www.w3.org/2000/svg"><sodipodi:namedview
     id="namedview1"
     pagecolor="#ffffff"
     bordercolor="#000000"
     borderopacity="0.25"
     inkscape:showpageshadow="2"
     inkscape:pageopacity="0.0"
     inkscape:pagecheckerboard="0"
     inkscape:deskcolor="#d1d1d1"
     inkscape:document-units="mm"
     inkscape:zoom="0.97890838"
     inkscape:cx="434.66785"
     inkscape:cy="352.94416"
     inkscape:window-width="1920"
     inkscape:window-height="1017"
     inkscape:window-x="1912"
     inkscape:window-y="-8"
     inkscape:window-maximized="1"
     inkscape:current-layer="layer1"
     showguides="true"><sodipodi:guide
       position="200.82105,317.27131"
       orientation="0,-1"
       id="guide1"
       inkscape:locked="false" /></sodipodi:namedview><defs
     id="defs1"><inkscape:path-effect
       effect="fillet_chamfer"
       id="path-effect16"
       is_visible="true"
       lpeversion="1"
       nodesatellites_param="F,0,0,1,0,5.1353969,0,1 @ F,0,0,1,0,0,0,1 @ F,0,0,1,0,0,0,1 @ F,0,0,1,0,0,0,1"
       radius="0"
       unit="px"
       method="auto"
       mode="F"
       chamfer_steps="1"
       flexible="false"
       use_knot_distance="true"
       apply_no_radius="true"
       apply_with_radius="true"
       only_selected="false"
       hide_knots="false" /><inkscape:path-effect
       effect="fillet_chamfer"
       id="path-effect14"
       is_visible="true"
       lpeversion="1"
       nodesatellites_param="F,0,0,1,0,5.1353969,0,1 @ F,0,0,1,0,0,0,1 @ F,0,0,1,0,0,0,1 @ F,0,0,1,0,0,0,1"
       radius="0"
       unit="px"
       method="auto"
       mode="F"
       chamfer_steps="1"
       flexible="false"
       use_knot_distance="true"
       apply_no_radius="true"
       apply_with_radius="true"
       only_selected="false"
       hide_knots="false" /><inkscape:path-effect
       effect="fillet_chamfer"
       id="path-effect12"
       is_visible="true"
       lpeversion="1"
       nodesatellites_param="F,0,0,1,0,5.1353969,0,1 @ F,0,0,1,0,0,0,1 @ F,0,0,1,0,0,0,1 @ F,0,0,1,0,0,0,1"
       radius="0"
       unit="px"
       method="auto"
       mode="F"
       chamfer_steps="1"
       flexible="false"
       use_knot_distance="true"
       apply_no_radius="true"
       apply_with_radius="true"
       only_selected="false"
       hide_knots="false" /><inkscape:path-effect
       effect="fillet_chamfer"
       id="path-effect10"
       is_visible="true"
       lpeversion="1"
       nodesatellites_param="F,0,0,1,0,5.1353969,0,1 @ F,0,0,1,0,0,0,1 @ F,0,0,1,0,0,0,1 @ F,0,0,1,0,0,0,1"
       radius="0"
       unit="px"
       method="auto"
       mode="F"
       chamfer_steps="1"
       flexible="false"
       use_knot_distance="true"
       apply_no_radius="true"
       apply_with_radius="true"
       only_selected="false"
       hide_knots="false" /><inkscape:path-effect
       effect="fillet_chamfer"
       id="path-effect3"
       is_visible="true"
       lpeversion="1"
       nodesatellites_param="F,0,0,1,0,5.1353969,0,1 @ F,0,0,1,0,0,0,1 @ F,0,0,1,0,0,0,1 @ F,0,0,1,0,0,0,1"
       radius="0"
       unit="px"
       method="auto"
       mode="F"
       chamfer_steps="1"
       flexible="false"
       use_knot_distance="true"
       apply_no_radius="true"
       apply_with_radius="true"
       only_selected="false"
       hide_knots="false" /><inkscape:path-effect
       effect="fillet_chamfer"
       id="path-effect1"
       is_visible="true"
       lpeversion="1"
       nodesatellites_param="F,0,0,1,0,5.1353969,0,1 @ F,0,0,1,0,0,0,1 @ F,0,0,1,0,0,0,1 @ F,0,0,1,0,0,0,1"
       radius="0"
       unit="px"
       method="auto"
       mode="F"
       chamfer_steps="1"
       flexible="false"
       use_knot_distance="true"
       apply_no_radius="true"
       apply_with_radius="true"
       only_selected="false"
       hide_knots="false" /><inkscape:path-effect
       effect="fillet_chamfer"
       id="path-effect1-6"
       is_visible="true"
       lpeversion="1"
       nodesatellites_param="F,0,0,1,0,5.1353969,0,1 @ F,0,0,1,0,0,0,1 @ F,0,0,1,0,0,0,1 @ F,0,0,1,0,0,0,1"
       radius="0"
       unit="px"
       method="auto"
       mode="F"
       chamfer_steps="1"
       flexible="false"
       use_knot_distance="true"
       apply_no_radius="true"
       apply_with_radius="true"
       only_selected="false"
       hide_knots="false" /></defs><g
     inkscape:label="Layer 1"
     inkscape:groupmode="layer"
     id="layer1"><text
       xml:space="preserve"
       style="font-size:8.46667px;fill:#706942;fill-opacity:1;stroke-width:0.264583"
       x="50.455597"
       y="91.928566"
       id="text19"
       inkscape:label="text19"><tspan
         sodipodi:role="line"
         id="tspan19"
         style="stroke-width:0.264583"
         x="50.455597"
         y="91.928566" /></text><g
       id="g3"
       transform="matrix(2.2459958,0,0,2.2459958,-59.956119,-177.27824)"><path
         id="rect1"
         style="fill:#1650f0;fill-opacity:1;stroke-width:0.266351"
         d="m 56.219298,73.65249 a 5.1353969,5.1353969 0 0 0 -5.135604,5.135087 v 45.272693 32.06316 a 5.1353969,5.1353969 0 0 0 5.135604,5.1356 h 37.43079 v 0.03 h 45.272692 a 5.1353969,5.1353969 0 0 0 5.1356,-5.1356 v -43.78596 h -0.0532 V 78.787577 a 5.1353969,5.1353969 0 0 0 -5.1356,-5.135087 h -38.86429 z"
         transform="translate(-24.083687,5.3475952)" /><path
         id="path16"
         style="fill:#424e70;fill-opacity:1;stroke-width:0.264583"
         d="m 119.97469,133.99983 c -3.7457,5.92492 -9.33805,13.94258 -14.28543,17.5581 -9.734661,7.11406 -29.843168,12.52862 -40.515356,15.04869 h 4.392497 v 0.03 h 45.272689 a 5.1353969,5.1353969 0 0 0 5.1356,-5.13561 z" /></g><rect
       style="fill:#fcc016;fill-opacity:1;stroke-width:0.594252"
       id="rect3"
       width="22.750463"
       height="101.30396"
       x="97.150818"
       y="54.518936" /><path
       id="path17"
       style="fill:#f09716;fill-opacity:1;stroke-width:3.27293"
       d="M 145.95851,34.696308 A 81.129007,82.846028 37.955196 0 0 31.035437,50.122212 81.129007,82.846028 37.955196 0 0 44.050401,165.34323 81.129007,82.846028 37.955196 0 0 158.9744,149.91807 81.129007,82.846028 37.955196 0 0 145.95851,34.696308 Z M 134.00764,54.003 A 50.957063,56.320766 37.955196 0 1 139.5473,129.75229 50.957063,56.320766 37.955196 0 1 64.728253,142.8196 50.957063,56.320766 37.955196 0 1 59.188617,67.070339 50.957063,56.320766 37.955196 0 1 134.00764,54.003 Z" /><path
       style="fill:#f09716;fill-opacity:1;stroke-width:0.572621"
       d="m 96.228394,68.738148 c -0.05233,20.049128 1.532151,-6.964249 10.485116,-6.955018 4.95721,0.0045 11.71148,2.616315 12.33982,10.708706 0.87636,11.28651 10.88625,-39.462394 10.98545,-39.557961 0,0 -69.433501,-17.877986 -61.839185,-0.569584 3.572667,8.142588 28.088722,13.40545 28.028799,36.373857 z"
       id="path18"
       sodipodi:nodetypes="ssscss" /><ellipse
       style="fill:#706942;fill-opacity:1;stroke-width:0.862065"
       id="path19"
       cx="109.16996"
       cy="42.499813"
       rx="14.594636"
       ry="13.736129" /><path
       sodipodi:type="spiral"
       style="fill:none;fill-rule:evenodd;stroke:#000000;stroke-width:0.264583"
       id="path2"
       sodipodi:cx="79.505791"
       sodipodi:cy="113.71622"
       sodipodi:expansion="1"
       sodipodi:revolution="3"
       sodipodi:radius="7.9008985"
       sodipodi:argument="-17.839924"
       sodipodi:t0="0"
       d="m 79.505791,113.71622 c 0.210814,0.33538 -0.348085,0.44964 -0.557432,0.35038 -0.56732,-0.26897 -0.488815,-1.0563 -0.143341,-1.46525 0.61797,-0.7315 1.753709,-0.57468 2.373069,0.0637 0.908936,0.93686 0.665465,2.46142 -0.27075,3.28089 -1.247827,1.09221 -3.172918,0.75847 -4.188707,-0.4778 -1.278267,-1.55572 -0.85267,-3.88623 0.684841,-5.09653 1.862133,-1.46582 4.600585,-0.94755 6.004345,0.89189 1.654282,2.16772 1.042875,5.31558 -1.098933,6.91216 -2.472802,1.84332 -6.031006,1.13849 -7.819982,-1.30597 -2.032747,-2.77756 -1.234297,-6.74674 1.513024,-8.7278 3.082079,-2.22246 7.462684,-1.33026 9.635619,1.72006 2.41237,3.38644 1.426326,8.1788 -1.927114,10.54344"
       transform="matrix(1.9372324,0,0,1.9020488,-46.795235,-174.0338)" /></g></svg>
